<?xml version="1.0" encoding="UTF-8"?>
<!-- Android Adaptive Icon - Foreground Layer -->
<!-- Export at 432x432 PNG -->
<svg width="432" height="432" viewBox="0 0 432 432" fill="none" xmlns="http://www.w3.org/2000/svg">
  <defs>
    <linearGradient id="potGradFg" x1="0%" y1="0%" x2="0%" y2="100%">
      <stop offset="0%" stop-color="#E8855A"/>
      <stop offset="100%" stop-color="#C65F2E"/>
    </linearGradient>
    <linearGradient id="lidGradFg" x1="0%" y1="0%" x2="0%" y2="100%">
      <stop offset="0%" stop-color="#D97742"/>
      <stop offset="100%" stop-color="#A44D25"/>
    </linearGradient>
    <linearGradient id="cardGradFg" x1="0%" y1="0%" x2="0%" y2="100%">
      <stop offset="0%" stop-color="#FFFFFF"/>
      <stop offset="100%" stop-color="#F5F0EB"/>
    </linearGradient>
    <linearGradient id="sageGradFg" x1="0%" y1="0%" x2="0%" y2="100%">
      <stop offset="0%" stop-color="#B5CAAC"/>
      <stop offset="100%" stop-color="#A8BCA0"/>
    </linearGradient>
  </defs>

  <!-- Steam wisps -->
  <g opacity="0.4" fill="none" stroke="#3A322C" stroke-width="7" stroke-linecap="round">
    <path d="M130,165 Q120,145 130,125 Q140,105 130,85"/>
    <path d="M302,165 Q292,145 302,125 Q312,105 302,85"/>
  </g>

  <!-- Recipe card (tilted) -->
  <g transform="rotate(-8 205 175)">
    <rect x="155" y="85" width="100" height="135" rx="7" fill="url(#cardGradFg)"/>
    <rect x="155" y="85" width="100" height="17" rx="7" fill="url(#sageGradFg)"/>
    <rect x="155" y="95" width="100" height="7" fill="url(#sageGradFg)"/>
    <rect x="170" y="112" width="50" height="6" rx="3" fill="#3A322C" opacity="0.75"/>
    <rect x="170" y="122" width="32" height="4" rx="2" fill="#3A322C" opacity="0.28"/>
    <circle cx="175" cy="140" r="2.5" fill="#A8BCA0"/>
    <rect x="182" y="137" width="42" height="4" rx="2" fill="#3A322C" opacity="0.32"/>
    <circle cx="175" cy="152" r="2.5" fill="#A8BCA0"/>
    <rect x="182" y="149" width="55" height="4" rx="2" fill="#3A322C" opacity="0.32"/>
    <circle cx="175" cy="164" r="2.5" fill="#A8BCA0"/>
    <rect x="182" y="161" width="36" height="4" rx="2" fill="#3A322C" opacity="0.32"/>
    <circle cx="175" cy="176" r="2.5" fill="#A8BCA0"/>
    <rect x="182" y="173" width="46" height="4" rx="2" fill="#3A322C" opacity="0.32"/>
  </g>

  <!-- Pot body -->
  <path d="M95,220 L95,320 Q95,358 135,358 L297,358 Q337,358 337,320 L337,220 Z"
        fill="url(#potGradFg)"/>

  <!-- Pot rim -->
  <rect x="87" y="207" width="258" height="25" rx="12" fill="url(#lidGradFg)"/>

  <!-- Pot handles -->
  <ellipse cx="62" cy="250" rx="25" ry="19" fill="url(#potGradFg)"/>
  <ellipse cx="62" cy="250" rx="12" ry="9" fill="#FBF9F5"/>
  <ellipse cx="370" cy="250" rx="25" ry="19" fill="url(#potGradFg)"/>
  <ellipse cx="370" cy="250" rx="12" ry="9" fill="#FBF9F5"/>

  <!-- Pot reflection -->
  <ellipse cx="137" cy="285" rx="15" ry="42" fill="white" opacity="0.12"/>
</svg>
